<svg width="32" height="32" viewBox="0 0 32 32" fill="none" xmlns="http://www.w3.org/2000/svg">
<path d="M21.586 2.66669H10.4127C5.55935 2.66669 2.66602 5.56002 2.66602 10.4134V21.5734C2.66602 26.44 5.55935 29.3334 10.4127 29.3334H21.5727C26.426 29.3334 29.3193 26.44 29.3193 21.5867V10.4134C29.3327 5.56002 26.4394 2.66669 21.586 2.66669ZM23.9993 17H10.4127L14.426 21.0134C14.8127 21.4 14.8127 22.04 14.426 22.4267C14.226 22.6267 13.9727 22.72 13.7193 22.72C13.466 22.72 13.2127 22.6267 13.0127 22.4267L7.29268 16.7067C7.10602 16.52 6.99935 16.2667 6.99935 16C6.99935 15.7334 7.10602 15.48 7.29268 15.2934L13.0127 9.57335C13.3993 9.18669 14.0393 9.18669 14.426 9.57335C14.8127 9.96002 14.8127 10.6 14.426 10.9867L10.4127 15H23.9993C24.546 15 24.9993 15.4534 24.9993 16C24.9993 16.5467 24.546 17 23.9993 17Z" fill="white"/>
</svg>
