<svg width="2003" height="427" viewBox="0 0 2003 427" fill="none" xmlns="http://www.w3.org/2000/svg">
<g opacity="0.2">
<path d="M401.831 0L426.762 24.945L24.9311 427L0 402.055L401.831 0Z" fill="url(#paint0_linear_2040_1444)"/>
<path d="M484.791 0L509.722 24.945L107.891 427L82.9599 402.055L484.791 0Z" fill="url(#paint1_linear_2040_1444)"/>
<path d="M567.751 0L592.682 24.945L190.851 427L165.92 402.055L567.751 0Z" fill="url(#paint2_linear_2040_1444)"/>
<path d="M650.711 0L675.642 24.945L273.811 427L248.88 402.055L650.711 0Z" fill="url(#paint3_linear_2040_1444)"/>
<path d="M733.671 0L758.602 24.945L356.771 427L331.84 402.055L733.671 0Z" fill="url(#paint4_linear_2040_1444)"/>
<path d="M816.631 0L841.562 24.945L439.731 427L414.799 402.055L816.631 0Z" fill="url(#paint5_linear_2040_1444)"/>
<path d="M899.591 0L924.522 24.945L522.69 427L497.759 402.055L899.591 0Z" fill="url(#paint6_linear_2040_1444)"/>
<path d="M982.55 0L1007.48 24.945L605.65 427L580.719 402.055L982.55 0Z" fill="url(#paint7_linear_2040_1444)"/>
<path d="M1065.51 0L1090.44 24.945L688.61 427L663.679 402.055L1065.51 0Z" fill="url(#paint8_linear_2040_1444)"/>
<path d="M1148.47 0L1173.4 24.945L771.57 427L746.639 402.055L1148.47 0Z" fill="url(#paint9_linear_2040_1444)"/>
<path d="M1231.43 0L1256.36 24.945L854.53 427L829.599 402.055L1231.43 0Z" fill="url(#paint10_linear_2040_1444)"/>
<path d="M1314.39 0L1339.32 24.945L937.49 427L912.559 402.055L1314.39 0Z" fill="url(#paint11_linear_2040_1444)"/>
<path d="M1397.35 0L1422.28 24.945L1020.45 427L995.519 402.055L1397.35 0Z" fill="url(#paint12_linear_2040_1444)"/>
<path d="M1480.31 0L1505.24 24.945L1103.41 427L1078.48 402.055L1480.31 0Z" fill="url(#paint13_linear_2040_1444)"/>
<path d="M1563.27 0L1588.2 24.945L1186.37 427L1161.44 402.055L1563.27 0Z" fill="url(#paint14_linear_2040_1444)"/>
<path d="M1646.23 0L1671.16 24.945L1269.33 427L1244.4 402.055L1646.23 0Z" fill="url(#paint15_linear_2040_1444)"/>
<path d="M1729.19 0L1754.12 24.945L1352.29 427L1327.36 402.055L1729.19 0Z" fill="url(#paint16_linear_2040_1444)"/>
<path d="M1812.15 0L1837.08 24.945L1435.25 427L1410.32 402.055L1812.15 0Z" fill="url(#paint17_linear_2040_1444)"/>
<path d="M1895.11 0L1920.04 24.945L1518.21 427L1493.28 402.055L1895.11 0Z" fill="url(#paint18_linear_2040_1444)"/>
<path d="M1978.07 0L2003 24.945L1601.17 427L1576.24 402.055L1978.07 0Z" fill="url(#paint19_linear_2040_1444)"/>
</g>
<defs>
<linearGradient id="paint0_linear_2040_1444" x1="1001.5" y1="0" x2="1001.5" y2="427" gradientUnits="userSpaceOnUse">
<stop stop-color="white"/>
<stop offset="0.839566" stop-color="white" stop-opacity="0"/>
</linearGradient>
<linearGradient id="paint1_linear_2040_1444" x1="1001.5" y1="0" x2="1001.5" y2="427" gradientUnits="userSpaceOnUse">
<stop stop-color="white"/>
<stop offset="0.839566" stop-color="white" stop-opacity="0"/>
</linearGradient>
<linearGradient id="paint2_linear_2040_1444" x1="1001.5" y1="0" x2="1001.5" y2="427" gradientUnits="userSpaceOnUse">
<stop stop-color="white"/>
<stop offset="0.839566" stop-color="white" stop-opacity="0"/>
</linearGradient>
<linearGradient id="paint3_linear_2040_1444" x1="1001.5" y1="0" x2="1001.5" y2="427" gradientUnits="userSpaceOnUse">
<stop stop-color="white"/>
<stop offset="0.839566" stop-color="white" stop-opacity="0"/>
</linearGradient>
<linearGradient id="paint4_linear_2040_1444" x1="1001.5" y1="0" x2="1001.5" y2="427" gradientUnits="userSpaceOnUse">
<stop stop-color="white"/>
<stop offset="0.839566" stop-color="white" stop-opacity="0"/>
</linearGradient>
<linearGradient id="paint5_linear_2040_1444" x1="1001.5" y1="0" x2="1001.5" y2="427" gradientUnits="userSpaceOnUse">
<stop stop-color="white"/>
<stop offset="0.839566" stop-color="white" stop-opacity="0"/>
</linearGradient>
<linearGradient id="paint6_linear_2040_1444" x1="1001.5" y1="0" x2="1001.5" y2="427" gradientUnits="userSpaceOnUse">
<stop stop-color="white"/>
<stop offset="0.839566" stop-color="white" stop-opacity="0"/>
</linearGradient>
<linearGradient id="paint7_linear_2040_1444" x1="1001.5" y1="0" x2="1001.5" y2="427" gradientUnits="userSpaceOnUse">
<stop stop-color="white"/>
<stop offset="0.839566" stop-color="white" stop-opacity="0"/>
</linearGradient>
<linearGradient id="paint8_linear_2040_1444" x1="1001.5" y1="0" x2="1001.5" y2="427" gradientUnits="userSpaceOnUse">
<stop stop-color="white"/>
<stop offset="0.839566" stop-color="white" stop-opacity="0"/>
</linearGradient>
<linearGradient id="paint9_linear_2040_1444" x1="1001.5" y1="0" x2="1001.5" y2="427" gradientUnits="userSpaceOnUse">
<stop stop-color="white"/>
<stop offset="0.839566" stop-color="white" stop-opacity="0"/>
</linearGradient>
<linearGradient id="paint10_linear_2040_1444" x1="1001.5" y1="0" x2="1001.5" y2="427" gradientUnits="userSpaceOnUse">
<stop stop-color="white"/>
<stop offset="0.839566" stop-color="white" stop-opacity="0"/>
</linearGradient>
<linearGradient id="paint11_linear_2040_1444" x1="1001.5" y1="0" x2="1001.5" y2="427" gradientUnits="userSpaceOnUse">
<stop stop-color="white"/>
<stop offset="0.839566" stop-color="white" stop-opacity="0"/>
</linearGradient>
<linearGradient id="paint12_linear_2040_1444" x1="1001.5" y1="0" x2="1001.5" y2="427" gradientUnits="userSpaceOnUse">
<stop stop-color="white"/>
<stop offset="0.839566" stop-color="white" stop-opacity="0"/>
</linearGradient>
<linearGradient id="paint13_linear_2040_1444" x1="1001.5" y1="0" x2="1001.5" y2="427" gradientUnits="userSpaceOnUse">
<stop stop-color="white"/>
<stop offset="0.839566" stop-color="white" stop-opacity="0"/>
</linearGradient>
<linearGradient id="paint14_linear_2040_1444" x1="1001.5" y1="0" x2="1001.5" y2="427" gradientUnits="userSpaceOnUse">
<stop stop-color="white"/>
<stop offset="0.839566" stop-color="white" stop-opacity="0"/>
</linearGradient>
<linearGradient id="paint15_linear_2040_1444" x1="1001.5" y1="0" x2="1001.5" y2="427" gradientUnits="userSpaceOnUse">
<stop stop-color="white"/>
<stop offset="0.839566" stop-color="white" stop-opacity="0"/>
</linearGradient>
<linearGradient id="paint16_linear_2040_1444" x1="1001.5" y1="0" x2="1001.5" y2="427" gradientUnits="userSpaceOnUse">
<stop stop-color="white"/>
<stop offset="0.839566" stop-color="white" stop-opacity="0"/>
</linearGradient>
<linearGradient id="paint17_linear_2040_1444" x1="1001.5" y1="0" x2="1001.5" y2="427" gradientUnits="userSpaceOnUse">
<stop stop-color="white"/>
<stop offset="0.839566" stop-color="white" stop-opacity="0"/>
</linearGradient>
<linearGradient id="paint18_linear_2040_1444" x1="1001.5" y1="0" x2="1001.5" y2="427" gradientUnits="userSpaceOnUse">
<stop stop-color="white"/>
<stop offset="0.839566" stop-color="white" stop-opacity="0"/>
</linearGradient>
<linearGradient id="paint19_linear_2040_1444" x1="1001.5" y1="0" x2="1001.5" y2="427" gradientUnits="userSpaceOnUse">
<stop stop-color="white"/>
<stop offset="0.839566" stop-color="white" stop-opacity="0"/>
</linearGradient>
</defs>
</svg>
