<svg width="966" height="206" viewBox="0 0 966 206" fill="none" xmlns="http://www.w3.org/2000/svg">
<g opacity="0.1">
<path d="M193.747 0L205.768 12.0208L12.0208 205.768L0 193.747L193.747 0Z" fill="white"/>
<path d="M233.747 0L245.768 12.0208L52.0208 205.768L40 193.747L233.747 0Z" fill="white"/>
<path d="M273.747 0L285.768 12.0208L92.0208 205.768L80 193.747L273.747 0Z" fill="white"/>
<path d="M313.747 0L325.768 12.0208L132.021 205.768L120 193.747L313.747 0Z" fill="white"/>
<path d="M353.747 0L365.768 12.0208L172.021 205.768L160 193.747L353.747 0Z" fill="white"/>
<path d="M393.747 0L405.768 12.0208L212.021 205.768L200 193.747L393.747 0Z" fill="white"/>
<path d="M433.747 0L445.768 12.0208L252.021 205.768L240 193.747L433.747 0Z" fill="white"/>
<path d="M473.747 0L485.768 12.0208L292.021 205.768L280 193.747L473.747 0Z" fill="white"/>
<path d="M513.747 0L525.768 12.0208L332.021 205.768L320 193.747L513.747 0Z" fill="white"/>
<path d="M553.747 0L565.768 12.0208L372.021 205.768L360 193.747L553.747 0Z" fill="white"/>
<path d="M593.747 0L605.768 12.0208L412.021 205.768L400 193.747L593.747 0Z" fill="white"/>
<path d="M633.747 0L645.768 12.0208L452.021 205.768L440 193.747L633.747 0Z" fill="white"/>
<path d="M673.747 0L685.768 12.0208L492.021 205.768L480 193.747L673.747 0Z" fill="white"/>
<path d="M713.747 0L725.768 12.0208L532.021 205.768L520 193.747L713.747 0Z" fill="white"/>
<path d="M753.747 0L765.768 12.0208L572.021 205.768L560 193.747L753.747 0Z" fill="white"/>
<path d="M793.747 0L805.768 12.0208L612.021 205.768L600 193.747L793.747 0Z" fill="white"/>
<path d="M833.747 0L845.768 12.0208L652.021 205.768L640 193.747L833.747 0Z" fill="white"/>
<path d="M873.747 0L885.768 12.0208L692.021 205.768L680 193.747L873.747 0Z" fill="white"/>
<path d="M913.747 0L925.768 12.0208L732.021 205.768L720 193.747L913.747 0Z" fill="white"/>
<path d="M953.747 0L965.768 12.0208L772.021 205.768L760 193.747L953.747 0Z" fill="white"/>
</g>
</svg>
