<svg width="19" height="18" viewBox="0 0 19 18" fill="none" xmlns="http://www.w3.org/2000/svg">
<path opacity="0.4" d="M9.49984 13.0125C10.175 13.0125 10.7223 12.4652 10.7223 11.79C10.7223 11.1148 10.175 10.5675 9.49984 10.5675C8.82468 10.5675 8.27734 11.1148 8.27734 11.79C8.27734 12.4652 8.82468 13.0125 9.49984 13.0125Z" fill="#060606"/>
<path d="M12.9875 7.08H6.0125C2.9375 7.08 2 8.0175 2 11.0925V12.4875C2 15.5625 2.9375 16.5 6.0125 16.5H12.9875C16.0625 16.5 17 15.5625 17 12.4875V11.0925C17 8.0175 16.0625 7.08 12.9875 7.08ZM9.5 14.055C8.2475 14.055 7.235 13.035 7.235 11.79C7.235 10.545 8.2475 9.525 9.5 9.525C10.7525 9.525 11.765 10.545 11.765 11.79C11.765 13.035 10.7525 14.055 9.5 14.055Z" fill="#060606"/>
<path opacity="0.4" d="M5.84004 7.0875V6.21C5.84004 4.0125 6.46254 2.55 9.50004 2.55C12.5375 2.55 13.16 4.0125 13.16 6.21V7.0875C13.5425 7.095 13.8875 7.11 14.21 7.155V6.21C14.21 4.185 13.7225 1.5 9.50004 1.5C5.27754 1.5 4.79004 4.185 4.79004 6.21V7.1475C5.10504 7.11 5.45754 7.0875 5.84004 7.0875Z" fill="#060606"/>
</svg>
