<svg width="64" height="64" viewBox="0 0 64 64" fill="none" xmlns="http://www.w3.org/2000/svg">
<path d="M35.4018 0L41.2447 1.25721C51.7399 4.4309 59.981 12.9707 62.8904 23.5628L63.9978 29.3517V34.6083C63.6003 36.4087 63.4277 38.2507 62.9778 40.0468C61.1299 47.4017 56.2897 54.1696 50.0974 58.4428C48.7191 59.3933 47.1792 60.0592 45.8818 61.1127H63.0171C63.2552 61.1127 63.8122 61.7654 64 61.9888V63.0839L63.2945 63.798C42.4897 64.0674 21.5538 64.0674 0.748958 63.798L0.0434509 63.0839V61.9888L0.748958 61.2748L18.1595 61.1105C16.6305 59.9278 14.8569 59.1437 13.2843 58.0091C7.10726 53.5563 2.42427 46.4774 0.803564 38.9932C0.489035 37.5389 0.368902 36.0561 0.0412667 34.6105C0.135189 32.8934 -0.0876031 31.0535 0.0412667 29.3539C1.15304 14.5609 13.7976 1.26597 28.6351 0H35.4018ZM31.4309 2.90867C8.55322 3.32263 -4.97155 29.4831 8.15788 48.4727C19.8392 65.3706 44.9775 65.1581 56.2307 47.947C69.0259 28.3792 54.6056 2.49033 31.4309 2.90867Z" fill="#060606"/>
<path d="M20.9335 12.7517C22.6437 12.3575 23.9674 13.5731 23.4475 15.2705C22.8949 17.0709 18.9786 20.9017 21.8683 22.2334C22.8272 22.6736 24.0984 22.759 25.2233 23.2474C27.7723 24.3557 29.4738 26.3379 30.5528 28.8501C30.8106 29.4481 30.8564 30.6921 31.4746 30.9922C33.1084 31.7895 33.5867 28.3245 34.3512 27.087C38.1452 20.952 47.1661 20.7418 51.3009 26.6467C52.0282 27.6849 52.3449 29.2137 52.8582 29.9015C53.6817 31.0054 55.4837 30.6067 54.658 33.2285C51.6176 38.0317 49.1494 43.5205 46.0565 48.2493C45.1675 49.6094 44.2523 50.9477 42.754 51.7252C41.2294 52.5159 38.1889 53.2256 38.0076 50.698C37.8547 48.5603 39.53 48.8275 40.8428 48.0565C41.9174 47.4236 43.3874 45.4633 43.2585 44.1491C43.0947 42.4801 40.6353 42.5393 39.399 42.0903C35.7622 40.7717 34.5391 37.0154 29.8648 38.7917C28.4319 39.3371 27.757 40.3512 26.5185 41.1287C21.6128 44.2126 15.0535 42.6773 12.2271 37.5958C11.8602 36.9366 11.4517 35.491 11.1852 35.1362C10.5649 34.3061 9.04905 34.5711 9.19321 32.5254L19.9375 13.503C20.1493 13.1262 20.5075 12.8459 20.9291 12.7495L20.9335 12.7517Z" fill="#060606"/>
</svg>
