<svg width="36" height="36" viewBox="0 0 36 36" fill="none" xmlns="http://www.w3.org/2000/svg">
<path d="M20.5954 5.26496L23.2354 10.545C23.5954 11.28 24.5554 11.985 25.3654 12.12L30.1504 12.915C33.2104 13.425 33.9304 15.645 31.7254 17.835L28.0054 21.555C27.3754 22.185 27.0304 23.4 27.2254 24.27L28.2904 28.875C29.1304 32.52 27.1954 33.93 23.9704 32.025L19.4854 29.37C18.6754 28.89 17.3404 28.89 16.5154 29.37L12.0304 32.025C8.82035 33.93 6.87035 32.505 7.71035 28.875L8.77535 24.27C8.97035 23.4 8.62535 22.185 7.99535 21.555L4.27535 17.835C2.08535 15.645 2.79035 13.425 5.85035 12.915L10.6354 12.12C11.4304 11.985 12.3904 11.28 12.7504 10.545L15.3904 5.26496C16.8304 2.39996 19.1704 2.39996 20.5954 5.26496Z" stroke="white" stroke-width="1.5" stroke-linecap="round" stroke-linejoin="round"/>
</svg>
