<svg width="726" height="822" viewBox="0 0 726 822" fill="none" xmlns="http://www.w3.org/2000/svg">
<path d="M324.575 714.88L188.424 742.467L330.104 715.829C328.261 715.55 326.418 715.215 324.575 714.824V714.88Z" fill="#D8D8D8"/>
<path d="M307.094 684.891L115.432 723.815L301.733 688.856C303.185 687.348 305.028 686.063 307.094 684.891Z" fill="#D8D8D8"/>
<path d="M691.987 651.997C669.649 638.539 637.091 629.101 597.832 624.801C532.827 617.597 468.996 613.967 408.012 613.967C394.777 613.967 381.653 614.134 368.641 614.525V223.159C388.802 237.791 396.173 253.93 396.173 253.93C396.173 253.93 411.14 235.445 416.445 197.47C420.298 170.106 441.576 153.799 441.576 153.799C441.576 153.799 412.313 132.075 401.032 88.8504C393.046 58.3028 376.404 42.8336 368.697 37.0257V34.2334L362.219 4.35596C360.935 -1.45199 352.669 -1.45199 351.385 4.35596L344.907 34.2334V615.307C257.844 619.104 178.599 630.832 117.224 649.261C43.3964 671.432 1.79145 701.03 0.0602325 732.639C-1.39175 759.054 22.7336 793.454 146.041 807.081C170.948 809.817 194.571 812.163 216.797 814.061C219.254 814.341 221.656 814.62 224.113 814.899C229.977 815.513 235.84 816.072 241.816 816.686C253.711 817.803 265.718 818.92 277.892 819.646C302.241 821.266 327.092 822.271 352.223 821.936C377.297 821.433 402.651 820.149 428.005 815.178C440.682 812.721 453.471 809.37 465.98 803.897C472.235 801.161 478.434 797.866 484.242 793.789C490.105 789.824 495.467 785.022 499.934 780.163C504.458 775.36 508.144 770.725 511.271 767.263C511.885 766.537 512.5 765.922 513.114 765.308C520.374 759.221 529.477 755.703 550.028 755.703C558.014 755.703 567.452 756.317 578.118 757.49C590.907 758.886 603.305 759.612 614.976 759.612C646.194 759.612 673 754.474 692.49 744.757C713.097 734.481 724.936 719.347 725.886 702.147C726.5 691.313 722.87 670.426 692.155 651.886L691.987 651.997ZM397.234 130.455C397.737 127.272 398.407 124.759 398.965 122.972C399.524 121.185 399.859 120.236 399.859 120.236C399.859 120.236 399.691 121.297 399.468 123.084C399.245 124.871 399.077 127.496 399.133 130.623C399.133 133.694 399.245 137.324 399.803 141.122C400.194 144.919 400.976 148.996 401.981 152.961C402.875 156.982 403.992 160.947 405.164 164.633C406.225 168.375 407.398 171.837 408.403 174.797C410.246 180.828 411.475 184.793 411.475 184.793C411.475 184.793 409.52 181.051 406.616 175.467C405.332 172.619 403.824 169.212 402.372 165.582C401.032 161.841 399.747 157.82 398.686 153.743C397.793 149.61 397.178 145.366 396.899 141.401C396.732 137.38 396.899 133.694 397.29 130.511L397.234 130.455ZM387.35 89.5205C387.685 90.5816 388.243 92.1453 388.69 94.2116C389.751 98.2883 390.924 104.152 391.65 111.356C392.264 118.504 392.487 126.937 392.822 135.872C393.046 144.808 393.493 154.301 395.335 163.516C397.011 172.786 399.691 182.001 401.367 190.88C403.042 199.76 403.377 208.36 402.595 215.564C401.758 222.768 400.027 228.576 398.63 232.541C397.178 236.506 396.173 238.628 396.173 238.628C396.173 238.628 397.011 236.394 398.128 232.374C399.189 228.353 400.417 222.489 400.697 215.397C401.199 208.304 400.473 200.095 398.463 191.439C396.676 182.783 393.828 173.624 391.985 164.13C390.309 154.581 389.974 144.864 389.863 135.928C389.863 126.937 390.03 118.616 389.695 111.524C389.528 104.375 388.857 98.4559 388.131 94.3791C387.796 92.3128 387.405 90.7491 387.182 89.6322C386.959 88.5153 386.791 87.9568 386.791 87.9568C386.791 87.9568 386.959 88.5153 387.294 89.5764L387.35 89.5205ZM556.003 634.35L368.641 672.381V644.179L453.862 628.263C486.476 629.213 520.597 631.223 556.003 634.35ZM408.012 627.593C412.592 627.593 417.283 627.649 421.974 627.705L368.641 638.594V628.151C381.486 627.816 394.609 627.593 408.012 627.593ZM368.53 81.3113C368.865 87.3984 369.144 93.9324 369.311 100.466C369.311 107 369.256 113.534 369.088 119.677C368.809 125.82 368.474 131.516 368.083 136.375C367.078 146.148 366.24 152.626 366.24 152.626C366.24 152.626 366.352 146.092 366.184 136.319C366.24 131.461 366.184 125.764 366.184 119.621C366.184 113.534 366.128 107 365.961 100.522C365.961 94.044 365.793 87.5101 365.626 81.4229C365.514 75.3357 365.346 69.6395 365.179 64.7809C365.067 55.008 364.732 48.474 364.732 48.474C364.732 48.474 365.793 54.8963 367.078 64.6134C367.58 69.472 368.083 75.1682 368.585 81.2554L368.53 81.3113ZM368.641 687.739C371.88 687.906 375.063 688.185 378.135 688.576C384.446 689.302 390.309 690.531 395.224 691.871C400.138 693.211 404.103 695.054 406.56 696.897C407.789 697.791 408.515 698.852 408.738 699.634C408.962 700.416 408.85 700.862 408.906 700.862C408.906 700.862 408.906 700.416 408.571 699.745C408.236 699.075 407.398 698.238 406.17 697.512C403.712 696.004 399.636 694.887 394.777 693.882C389.863 692.876 384.055 692.262 377.8 691.76C374.84 691.536 371.769 691.369 368.641 691.257V687.85V687.739ZM350.826 33.8425C352.39 33.3957 354.401 33.1165 356.467 33.1165C358.533 33.1165 360.6 33.3957 362.107 33.8425C363.671 34.2334 364.676 34.8477 364.676 34.8477C364.676 34.8477 363.671 35.4061 362.107 35.8529C360.544 36.2996 358.533 36.5789 356.467 36.5789C354.401 36.5789 352.334 36.2996 350.826 35.8529C349.263 35.462 348.258 34.9035 348.258 34.9035C348.258 34.9035 349.263 34.3451 350.826 33.9541V33.8425ZM350.659 702.761V655.795H362.889V709.351C361.326 709.351 359.762 709.463 358.198 709.463C355.629 709.463 353.116 709.351 350.659 709.295V702.761ZM350.659 524.334V413.146H362.889V524.334H350.659ZM350.659 281.741V170.553H362.889V281.741H350.659ZM707.68 712.534C704.497 717.113 698.019 722.307 688.581 726.16C679.143 730.07 666.745 732.471 652.449 733.42C638.096 734.37 621.734 733.811 604.031 731.801C601.797 731.522 599.507 731.242 597.217 730.963L709.244 710.077C708.797 710.859 708.294 711.641 707.624 712.478L707.68 712.534ZM711.98 702.761L583.647 729.008C581.134 728.618 578.732 728.227 576.164 727.836C566 726.328 555.389 725.099 543.773 724.932C537.965 724.876 531.99 725.155 525.567 726.16C519.201 727.166 512.388 728.841 505.686 732.08C498.985 735.207 492.73 740.066 488.095 744.645C486.308 746.377 484.744 747.94 483.236 749.504L334.464 779.94L479.997 752.855C478.657 754.195 477.373 755.535 476.088 756.708C472.514 760.059 468.996 762.739 465.087 765.196C461.233 767.654 456.877 769.72 452.242 771.507C447.607 773.294 442.581 774.802 437.387 776.086C432.194 777.427 426.832 778.544 421.304 779.437C399.133 783.011 375.343 784.296 351.497 784.575C339.546 784.798 327.539 784.742 315.532 784.519C303.525 784.296 291.518 784.016 279.623 783.57C267.672 783.067 255.889 782.509 244.161 782.006C232.434 781.392 220.874 780.722 209.481 780.107C186.696 778.711 164.637 777.315 143.751 776.031C123.144 774.579 103.71 772.512 86.1183 769.552C68.5828 766.537 52.7226 762.628 39.9899 756.987C33.6793 754.195 28.2064 750.844 24.1297 747.047C20.053 743.249 17.7075 738.837 17.2049 734.37C16.7023 729.902 17.875 725.546 19.3829 721.916C20.9465 718.286 22.8453 715.326 24.4648 712.981C26.1401 710.691 27.4804 708.96 28.4298 707.787C29.3233 706.782 29.7701 706.224 29.8818 706.112C69.979 670.259 181.949 636.193 344.795 629.045V643.509L42.2795 705.218L344.795 648.758V679.976C322.122 681.484 301.515 687.013 301.515 697.121C301.515 709.239 330.834 714.712 358.086 714.712C385.339 714.712 414.658 709.183 414.658 697.121C414.658 686.566 392.32 681.037 368.53 679.809V676.458L579.905 636.807C585.322 637.366 590.739 637.868 596.268 638.483C617.154 640.772 635.081 644.458 650.159 649.038L418.009 696.115C418.009 696.451 418.12 696.786 418.12 697.177C418.12 698.014 418.009 698.796 417.841 699.578L663.059 653.394C677.858 659.034 689.251 665.68 697.237 672.772L261.474 761.343L703.045 678.58C709.858 686.566 712.762 694.887 711.98 702.873V702.761ZM344.907 687.962V691.257C342.785 691.369 340.607 691.48 338.596 691.592C332.342 692.095 326.534 692.709 321.619 693.714C316.761 694.719 312.684 695.836 310.227 697.344C308.998 698.07 308.16 698.852 307.825 699.578C307.49 700.248 307.49 700.751 307.49 700.695C307.49 700.695 307.434 700.304 307.658 699.466C307.937 698.684 308.663 697.679 309.836 696.786C312.237 694.943 316.202 693.1 321.172 691.76C326.087 690.419 331.951 689.191 338.261 688.465C340.383 688.185 342.673 688.074 344.907 687.906V687.962Z" fill="#D8D8D8"/>
</svg>
