<svg width="25" height="24" viewBox="0 0 25 24" fill="none" xmlns="http://www.w3.org/2000/svg">
<path opacity="0.4" d="M11.2604 2C10.7804 2 10.4004 2.38 10.4004 2.86V21.15C10.4004 21.62 10.7804 22.01 11.2604 22.01C17.1504 22.01 21.2604 17.9 21.2604 12.01C21.2604 6.12 17.1404 2 11.2604 2Z" fill="white"/>
<path d="M16.4002 11.54L13.5602 8.69C13.2702 8.4 12.7902 8.4 12.5002 8.69C12.2102 8.98 12.2102 9.46 12.5002 9.75L14.0602 11.31H4.49023C4.08023 11.31 3.74023 11.65 3.74023 12.06C3.74023 12.47 4.08023 12.81 4.49023 12.81H14.0602L12.5002 14.38C12.2102 14.67 12.2102 15.15 12.5002 15.44C12.6502 15.59 12.8402 15.66 13.0302 15.66C13.2202 15.66 13.4102 15.59 13.5602 15.44L16.4002 12.59C16.7002 12.3 16.7002 11.83 16.4002 11.54Z" fill="white"/>
</svg>
