<svg width="439" height="94" viewBox="0 0 439 94" fill="none" xmlns="http://www.w3.org/2000/svg">
<g opacity="0.1">
<path d="M88.0698 0L93.534 5.49141L5.46419 94L0 88.5086L88.0698 0Z" fill="white"/>
<path d="M106.252 0L111.716 5.49141L23.6466 94L18.1824 88.5086L106.252 0Z" fill="white"/>
<path d="M124.435 0L129.899 5.49141L41.829 94L36.3648 88.5086L124.435 0Z" fill="white"/>
<path d="M142.617 0L148.081 5.49141L60.0114 94L54.5473 88.5086L142.617 0Z" fill="white"/>
<path d="M160.8 0L166.264 5.49141L78.1939 94L72.7297 88.5086L160.8 0Z" fill="white"/>
<path d="M178.982 0L184.446 5.49141L96.3763 94L90.9121 88.5086L178.982 0Z" fill="white"/>
<path d="M197.164 0L202.629 5.49141L114.559 94L109.095 88.5086L197.164 0Z" fill="white"/>
<path d="M215.347 0L220.811 5.49141L132.741 94L127.277 88.5086L215.347 0Z" fill="white"/>
<path d="M233.529 0L238.993 5.49141L150.924 94L145.459 88.5086L233.529 0Z" fill="white"/>
<path d="M251.712 0L257.176 5.49141L169.106 94L163.642 88.5086L251.712 0Z" fill="white"/>
<path d="M269.894 0L275.358 5.49141L187.288 94L181.824 88.5086L269.894 0Z" fill="white"/>
<path d="M288.076 0L293.541 5.49141L205.471 94L200.007 88.5086L288.076 0Z" fill="white"/>
<path d="M306.259 0L311.723 5.49141L223.653 94L218.189 88.5086L306.259 0Z" fill="white"/>
<path d="M324.441 0L329.905 5.49141L241.836 94L236.371 88.5086L324.441 0Z" fill="white"/>
<path d="M342.624 0L348.088 5.49141L260.018 94L254.554 88.5086L342.624 0Z" fill="white"/>
<path d="M360.806 0L366.27 5.49141L278.2 94L272.736 88.5086L360.806 0Z" fill="white"/>
<path d="M378.989 0L384.453 5.49141L296.383 94L290.919 88.5086L378.989 0Z" fill="white"/>
<path d="M397.171 0L402.635 5.49141L314.565 94L309.101 88.5086L397.171 0Z" fill="white"/>
<path d="M415.353 0L420.818 5.49141L332.748 94L327.284 88.5086L415.353 0Z" fill="white"/>
<path d="M433.536 0L439 5.49141L350.93 94L345.466 88.5086L433.536 0Z" fill="white"/>
</g>
</svg>
