<svg width="441" height="92" viewBox="0 0 441 92" fill="none" xmlns="http://www.w3.org/2000/svg">
<g opacity="0.05">
<path d="M496.637 -48.8838L484.616 -36.863L678.363 156.884L690.384 144.863L496.637 -48.8838Z" fill="#060606"/>
<path d="M456.637 -48.8838L444.616 -36.863L638.363 156.884L650.384 144.863L456.637 -48.8838Z" fill="#060606"/>
<path d="M416.637 -48.8838L404.616 -36.863L598.363 156.884L610.384 144.863L416.637 -48.8838Z" fill="#060606"/>
<path d="M376.637 -48.8838L364.616 -36.863L558.363 156.884L570.384 144.863L376.637 -48.8838Z" fill="#060606"/>
<path d="M336.636 -48.8838L324.616 -36.863L518.363 156.884L530.384 144.863L336.636 -48.8838Z" fill="#060606"/>
<path d="M296.636 -48.8838L284.616 -36.863L478.363 156.884L490.384 144.863L296.636 -48.8838Z" fill="#060606"/>
<path d="M256.636 -48.8838L244.616 -36.863L438.363 156.884L450.384 144.863L256.636 -48.8838Z" fill="#060606"/>
<path d="M216.636 -48.8838L204.616 -36.863L398.363 156.884L410.384 144.863L216.636 -48.8838Z" fill="#060606"/>
<path d="M176.636 -48.8838L164.616 -36.863L358.363 156.884L370.384 144.863L176.636 -48.8838Z" fill="#060606"/>
<path d="M136.636 -48.8838L124.616 -36.863L318.363 156.884L330.384 144.863L136.636 -48.8838Z" fill="#060606"/>
<path d="M96.6365 -48.8838L84.6157 -36.863L278.363 156.884L290.384 144.863L96.6365 -48.8838Z" fill="#060606"/>
<path d="M56.6365 -48.8838L44.6157 -36.863L238.363 156.884L250.384 144.863L56.6365 -48.8838Z" fill="#060606"/>
<path d="M16.6365 -48.8838L4.61566 -36.863L198.363 156.884L210.384 144.863L16.6365 -48.8838Z" fill="#060606"/>
<path d="M-23.3635 -48.8838L-35.3843 -36.863L158.363 156.884L170.384 144.863L-23.3635 -48.8838Z" fill="#060606"/>
<path d="M-63.3635 -48.8838L-75.3843 -36.863L118.363 156.884L130.384 144.863L-63.3635 -48.8838Z" fill="#060606"/>
<path d="M-103.364 -48.8838L-115.384 -36.863L78.3629 156.884L90.3837 144.863L-103.364 -48.8838Z" fill="#060606"/>
<path d="M-143.364 -48.8838L-155.384 -36.863L38.3629 156.884L50.3837 144.863L-143.364 -48.8838Z" fill="#060606"/>
<path d="M-183.364 -48.8838L-195.384 -36.863L-1.63708 156.884L10.3837 144.863L-183.364 -48.8838Z" fill="#060606"/>
<path d="M-223.364 -48.8838L-235.384 -36.863L-41.6371 156.884L-29.6163 144.863L-223.364 -48.8838Z" fill="#060606"/>
<path d="M-263.364 -48.8838L-275.384 -36.863L-81.6371 156.884L-69.6163 144.863L-263.364 -48.8838Z" fill="#060606"/>
</g>
</svg>
