<svg width="215" height="82" viewBox="0 0 215 82" fill="none" xmlns="http://www.w3.org/2000/svg">
<path d="M92.3491 35.5859V0.0483527H101.245C104.1 0.0483527 106.352 0.338456 108.001 0.918661C109.682 1.49886 110.919 2.24024 111.712 3.14278C112.536 4.04532 113.075 4.99622 113.329 5.99546C113.583 6.9947 113.71 7.92948 113.71 8.79978C113.71 9.73456 113.567 10.7177 113.282 11.7492C113.028 12.7484 112.584 13.6832 111.949 14.5535C111.315 15.3916 110.443 16.0685 109.333 16.5842C111.712 17.1966 113.393 18.2604 114.376 19.7753C115.391 21.2581 115.898 22.9181 115.898 24.7554C115.898 26.0125 115.755 27.2858 115.47 28.5751C115.185 29.8645 114.582 31.041 113.662 32.1047C112.774 33.1362 111.426 33.9743 109.618 34.6189C107.811 35.2636 105.384 35.5859 102.34 35.5859H92.3491ZM97.5822 15.1337H102.102C103.751 15.1337 105.02 14.8597 105.908 14.3117C106.796 13.7315 107.414 12.9902 107.763 12.0876C108.144 11.1851 108.334 10.2342 108.334 9.23494C108.334 8.39686 108.144 7.63937 107.763 6.96247C107.414 6.25333 106.764 5.68924 105.812 5.2702C104.893 4.85116 103.577 4.64164 101.864 4.64164H97.5822V15.1337ZM97.5822 31.041H103.053C104.671 31.041 105.955 30.8476 106.907 30.4608C107.89 30.074 108.635 29.5744 109.143 28.9619C109.65 28.3495 109.983 27.6887 110.142 26.9796C110.3 26.2382 110.38 25.5129 110.38 24.8038C110.38 23.1276 109.825 21.8222 108.714 20.8874C107.604 19.9204 105.86 19.4369 103.481 19.4369H97.5822V31.041Z" fill="#060606"/>
<path d="M122.283 35.5859V0.0483527H127.611V35.5859H122.283Z" fill="#060606"/>
<path d="M134.766 35.5859V0.0483527H139.999V15.9073L151.988 0.0483527H158.362L146.326 15.6655L160.075 35.5859H153.558L142.853 19.6786L139.999 23.2566V35.5859H134.766Z" fill="#060606"/>
<path d="M163.678 35.5859V0.0483527H169.006V35.5859H163.678Z" fill="#060606"/>
<path d="M201.803 35.5859L181.346 12.5711L181.489 16.4392V35.5859H176.161V0H176.827L197.379 23.3049L197.188 19.2435V0.0483527H202.516V35.5859H201.803Z" fill="#060606"/>
<path d="M209.672 35.5859V0.0483527H215V35.5859H209.672Z" fill="#060606"/>
<path d="M111.983 80.5614C109.109 80.5614 106.46 80.046 104.036 79.015C101.647 77.9841 99.569 76.5622 97.803 74.7492C96.0716 72.9007 94.7211 70.7322 93.7515 68.2438C92.8166 65.7199 92.3491 63.0004 92.3491 60.0854C92.3491 57.206 92.8339 54.5576 93.8035 52.1403C94.773 49.723 96.1408 47.6257 97.9068 45.8482C99.6728 44.0708 101.768 42.7022 104.192 41.7424C106.616 40.747 109.265 40.2493 112.139 40.2493C114.39 40.2493 116.329 40.4626 117.956 40.8892C119.618 41.2803 120.934 41.7246 121.904 42.2223C122.908 42.6844 123.548 43.0577 123.826 43.3421L121.54 48.3544C121.298 48.1411 120.813 47.8212 120.086 47.3946C119.359 46.968 118.337 46.577 117.021 46.2215C115.74 45.866 114.078 45.6883 112.035 45.6883C109.195 45.6883 106.771 46.3282 104.763 47.6079C102.755 48.8521 101.214 50.5407 100.14 52.6736C99.0669 54.8065 98.5301 57.1705 98.5301 59.7655C98.5301 62.7871 99.1188 65.471 100.296 67.8173C101.473 70.1279 103.084 71.9409 105.127 73.2562C107.17 74.5359 109.49 75.1758 112.087 75.1758C113.576 75.1758 115.082 74.9803 116.606 74.5893C118.164 74.1982 119.48 73.5406 120.553 72.6163V65.0445H112.71V59.5522H126.319V74.9092C125.176 76.4022 123.375 77.7175 120.917 78.8551C118.458 79.9926 115.48 80.5614 111.983 80.5614Z" fill="#060606"/>
<path d="M150.375 80.5614C147.778 80.5614 145.319 80.0993 142.999 79.175C140.714 78.2508 138.688 76.9177 136.922 75.1758C135.156 73.3984 133.754 71.2655 132.715 68.7771C131.711 66.2887 131.208 63.4803 131.208 60.3521C131.208 57.1882 131.711 54.3621 132.715 51.8737C133.754 49.3853 135.156 47.2702 136.922 45.5283C138.723 43.7864 140.766 42.4711 143.051 41.5824C145.371 40.6582 147.812 40.196 150.375 40.196C152.937 40.196 155.361 40.6582 157.647 41.5824C159.967 42.4711 162.01 43.7864 163.776 45.5283C165.576 47.2702 166.979 49.3853 167.983 51.8737C169.022 54.3621 169.541 57.1882 169.541 60.3521C169.541 63.4803 169.022 66.2887 167.983 68.7771C166.979 71.2655 165.594 73.3984 163.828 75.1758C162.062 76.9177 160.019 78.2508 157.699 79.175C155.413 80.0993 152.972 80.5614 150.375 80.5614ZM150.375 75.1758C152.729 75.1758 154.894 74.607 156.867 73.4695C158.841 72.3319 160.417 70.6789 161.594 68.5105C162.771 66.3064 163.36 63.6048 163.36 60.4054C163.36 57.1705 162.771 54.4688 161.594 52.3003C160.417 50.0963 158.841 48.4433 156.867 47.3413C154.928 46.2037 152.764 45.635 150.375 45.635C147.985 45.635 145.804 46.2037 143.83 47.3413C141.891 48.4433 140.333 50.0963 139.155 52.3003C137.978 54.4688 137.389 57.1705 137.389 60.4054C137.389 63.6048 137.995 66.3064 139.207 68.5105C140.419 70.6789 142.012 72.3319 143.986 73.4695C145.96 74.607 148.089 75.1758 150.375 75.1758Z" fill="#060606"/>
<path d="M175.832 80.0282V40.8359H181.702V74.6959H192.661V80.0282H175.832Z" fill="#060606"/>
<path d="M197.034 80.0282V40.8359H214.954V46.0082H202.799V57.0994H212.253V62.325H202.799V80.0282H197.034Z" fill="#060606"/>
<path d="M45.496 0L53.0047 1.6108C66.4925 5.67709 77.0834 16.6187 80.8224 30.1899L82.2455 37.6069V44.3419C81.7346 46.6487 81.5129 49.0088 80.9346 51.3099C78.5599 60.7334 72.3395 69.4047 64.3816 74.8798C62.6104 76.0977 60.6314 76.9508 58.9641 78.3006H80.9852C81.2911 78.3006 82.0069 79.1369 82.2483 79.4231V80.8263L81.3417 81.7411C54.6047 82.0863 27.6994 82.0863 0.962509 81.7411L0.0558401 80.8263V79.4231L0.962509 78.5083L23.3373 78.2978C21.3724 76.7824 19.0931 75.7778 17.072 74.3241C9.13376 68.619 3.1155 59.5491 1.03268 49.9601C0.628473 48.0967 0.474087 46.1969 0.0530331 44.3447C0.173735 42.1446 -0.112581 39.7873 0.0530331 37.6097C1.48181 18.6561 17.7317 1.62203 36.7998 0H45.496ZM40.3928 3.72673C10.992 4.25712 -6.38909 37.7752 10.4839 62.1056C25.4959 83.756 57.8019 83.4838 72.2637 61.4321C88.7073 36.3609 70.1753 3.19073 40.3928 3.72673Z" fill="#060606"/>
<path d="M26.9022 16.3381C29.1001 15.833 30.8012 17.3905 30.1331 19.5653C29.4229 21.8721 24.3899 26.7803 28.1036 28.4865C29.3359 29.0505 30.9696 29.16 32.4152 29.7858C35.691 31.2058 37.8777 33.7454 39.2644 36.9642C39.5956 37.7303 39.6545 39.3243 40.4489 39.7088C42.5486 40.7302 43.1633 36.2907 44.1458 34.7052C49.0216 26.8448 60.6146 26.5754 65.9283 34.1411C66.863 35.4713 67.27 37.4301 67.9297 38.3112C68.9879 39.7256 71.3037 39.2149 70.2427 42.574C66.3353 48.7281 63.1634 55.7606 59.1886 61.8194C58.0462 63.5621 56.87 65.2767 54.9444 66.2729C52.9851 67.286 49.0777 68.1952 48.8447 64.9568C48.6482 62.2179 50.8012 62.5602 52.4883 61.5724C53.8693 60.7614 55.7584 58.2498 55.5928 56.566C55.3823 54.4277 52.2216 54.5034 50.6328 53.9281C45.9591 52.2388 44.3872 47.426 38.3801 49.7019C36.5387 50.4007 35.6714 51.7 34.0798 52.6962C27.7752 56.6474 19.3457 54.6802 15.7134 48.1697C15.2418 47.325 14.7169 45.4728 14.3745 45.0182C13.5773 43.9547 11.6292 44.2942 11.8145 41.6732L25.6222 17.3007C25.8945 16.818 26.3549 16.4588 26.8966 16.3353L26.9022 16.3381Z" fill="#060606"/>
</svg>
