<svg width="30" height="30" viewBox="0 0 30 30" fill="none" xmlns="http://www.w3.org/2000/svg">
<path d="M22.4924 0H7.50763C3.36783 0 0 3.51743 0 7.84112V22.1589C0 26.4826 3.36783 30 7.50763 30H22.4924C26.6322 30 30 26.4826 30 22.1589V7.84112C30 3.51743 26.6322 0 22.4924 0ZM2.64846 7.84112C2.64846 5.04312 4.82864 2.76607 7.50763 2.76607H22.4924C25.1714 2.76607 27.3515 5.04312 27.3515 7.84112V22.1589C27.3515 24.9569 25.1714 27.2339 22.4924 27.2339H7.50763C4.82864 27.2339 2.64846 24.9569 2.64846 22.1589V7.84112Z" fill="white"/>
<path d="M15 22.2918C18.8497 22.2918 21.9833 19.0207 21.9833 14.9983C21.9833 10.9758 18.8514 7.70471 15 7.70471C11.1486 7.70471 8.0166 10.9758 8.0166 14.9983C8.0166 19.0207 11.1486 22.2918 15 22.2918ZM15 10.4726C17.3905 10.4726 19.3349 12.5033 19.3349 15C19.3349 17.4968 17.3905 19.5275 15 19.5275C12.6094 19.5275 10.6651 17.4968 10.6651 15C10.6651 12.5033 12.6094 10.4726 15 10.4726Z" fill="white"/>
<path d="M22.6282 8.88299C23.6648 8.88299 24.5097 8.00233 24.5097 6.91787C24.5097 5.8334 23.6665 4.9527 22.6282 4.9527C21.5898 4.9527 20.7466 5.8334 20.7466 6.91787C20.7466 8.00233 21.5898 8.88299 22.6282 8.88299Z" fill="white"/>
</svg>
