<svg width="24" height="24" viewBox="0 0 24 24" fill="none" xmlns="http://www.w3.org/2000/svg">
<path d="M12 3.59998C12.0227 3.59998 19.5154 3.60042 21.3906 4.11365C22.4184 4.39043 23.229 5.20109 23.5059 6.22888C24.0199 8.10696 24 12.0219 24 12.0219C24 12.051 23.9982 15.9233 23.5059 17.7943C23.2291 18.8222 22.4185 19.6327 21.3906 19.9095C19.5154 20.403 12.0227 20.4037 12 20.4037C12 20.4037 4.50723 20.404 2.60938 19.89C1.58149 19.6132 0.770951 18.8026 0.494141 17.7748C0.00281096 15.9274 1.69413e-05 12.0478 0 12.0023C0 12.0023 -9.11802e-05 8.10696 0.494141 6.22888C0.770994 5.20109 1.60132 4.37089 2.60938 4.09412C4.48746 3.59988 12 3.59998 12 3.59998ZM9.6084 15.6L15.8555 12.0023L9.6084 8.40369V15.6Z" fill="white"/>
</svg>
