<svg width="46" height="43" viewBox="0 0 46 43" fill="none" xmlns="http://www.w3.org/2000/svg">
<path d="M29.8813 36.2769L45 21.1582L29.6076 21.1982C35.2278 21.1834 38.0746 27.958 34.1309 31.9622L29.8813 36.2769Z" fill="#060606"/>
<path d="M45 21.1582L34.9209 11.0791L29.8813 6.03955L34.1231 10.3122C38.1183 14.3364 35.2782 21.1834 29.6076 21.1982L45 21.1582Z" fill="#060606"/>
<path d="M1 21.1582L29.6076 21.1982M45 21.1582L34.9209 11.0791L29.8813 6.03955M45 21.1582L29.8813 36.2769M45 21.1582L29.6076 21.1982M24.8418 1L29.8813 6.03955M24.8418 41.3164L29.8813 36.2769M29.8813 6.03955L34.1231 10.3122C38.1183 14.3364 35.2782 21.1834 29.6076 21.1982V21.1982M29.8813 36.2769L34.1309 31.9622C38.0746 27.958 35.2278 21.1834 29.6076 21.1982V21.1982" stroke="#060606" stroke-width="2" stroke-linecap="round" stroke-linejoin="round"/>
</svg>
