<svg width="33" height="32" viewBox="0 0 33 32" fill="none" xmlns="http://www.w3.org/2000/svg">
<g clip-path="url(#clip0_178_629)">
<path fill-rule="evenodd" clip-rule="evenodd" d="M31.86 16.3637C31.86 15.2291 31.7582 14.1382 31.5691 13.0909H16.5V19.28H25.1109C24.74 21.28 23.6127 22.9746 21.9182 24.1091V28.1237H27.0891C30.1145 25.3382 31.86 21.2364 31.86 16.3637Z" fill="#4285F4"/>
<path fill-rule="evenodd" clip-rule="evenodd" d="M16.5003 32C20.8203 32 24.4421 30.5673 27.0894 28.1236L21.9185 24.1091C20.4858 25.0691 18.6531 25.6363 16.5003 25.6363C12.3331 25.6363 8.80578 22.8218 7.5476 19.04H2.20215V23.1854C4.83488 28.4145 10.2458 32 16.5003 32Z" fill="#34A853"/>
<path fill-rule="evenodd" clip-rule="evenodd" d="M7.54727 19.04C7.22727 18.08 7.04545 17.0546 7.04545 16C7.04545 14.9455 7.22727 13.92 7.54727 12.96V8.81458H2.20182C1.11818 10.9746 0.5 13.4182 0.5 16C0.5 18.5818 1.11818 21.0255 2.20182 23.1855L7.54727 19.04Z" fill="#FBBC05"/>
<path fill-rule="evenodd" clip-rule="evenodd" d="M16.5003 6.36364C18.8494 6.36364 20.9585 7.17091 22.6167 8.75636L27.2058 4.16727C24.4349 1.58545 20.8131 0 16.5003 0C10.2458 0 4.83488 3.58545 2.20215 8.81455L7.5476 12.96C8.80578 9.17818 12.3331 6.36364 16.5003 6.36364Z" fill="#EA4335"/>
</g>
<defs>
<clipPath id="clip0_178_629">
<rect width="32" height="32" fill="white" transform="translate(0.5)"/>
</clipPath>
</defs>
</svg>
