<svg width="33" height="32" viewBox="0 0 33 32" fill="none" xmlns="http://www.w3.org/2000/svg">
<path d="M29.5303 24.9377C29.042 26.0557 28.4639 27.0848 27.7942 28.031C26.8813 29.3208 26.1338 30.2136 25.5578 30.7094C24.6648 31.5232 23.708 31.94 22.6835 31.9637C21.948 31.9637 21.061 31.7563 20.0285 31.3355C18.9926 30.9168 18.0406 30.7094 17.1701 30.7094C16.2572 30.7094 15.2781 30.9168 14.2309 31.3355C13.182 31.7563 12.3371 31.9755 11.6911 31.9973C10.7086 32.0387 9.72929 31.6101 8.7518 30.7094C8.12791 30.1702 7.34755 29.2457 6.41271 27.9361C5.4097 26.5377 4.58509 24.916 3.93908 23.0672C3.24722 21.0702 2.90039 19.1364 2.90039 17.2643C2.90039 15.1197 3.36801 13.2701 4.30464 11.7201C5.04075 10.4751 6.02004 9.49305 7.24569 8.77208C8.47135 8.05112 9.79567 7.68372 11.2218 7.66022C12.0022 7.66022 13.0255 7.89942 14.2972 8.36953C15.5654 8.84122 16.3796 9.08042 16.7366 9.08042C17.0035 9.08042 17.908 8.80072 19.4414 8.24311C20.8915 7.72599 22.1154 7.51188 23.118 7.59622C25.8348 7.8135 27.8759 8.8748 29.2333 10.7868C26.8035 12.2458 25.6016 14.2891 25.6255 16.9105C25.6475 18.9523 26.3949 20.6514 27.864 22.0005C28.5297 22.6267 29.2732 23.1106 30.1004 23.4543C29.921 23.9698 29.7316 24.4637 29.5303 24.9377ZM23.2994 0.640182C23.2994 2.24055 22.7094 3.7348 21.5334 5.11787C20.1142 6.76207 18.3976 7.71216 16.5361 7.56224C16.5124 7.37025 16.4986 7.16818 16.4986 6.95584C16.4986 5.41949 17.1735 3.7753 18.3721 2.43094C18.9704 1.75027 19.7315 1.1843 20.6543 0.73282C21.5752 0.288073 22.4463 0.0421187 23.2655 0C23.2894 0.213944 23.2994 0.427901 23.2994 0.640161V0.640182Z" fill="#060606"/>
</svg>
