<svg width="24" height="24" viewBox="0 0 24 24" fill="none" xmlns="http://www.w3.org/2000/svg">
<path d="M21.4357 8.91892C23.1307 10.6601 23.1307 13.3399 21.4357 15.0811C19.2417 17.3348 15.8361 20 12 20C8.16391 20 4.75834 17.3348 2.5643 15.0811C0.869281 13.3399 0.86928 10.6601 2.5643 8.91892C4.75834 6.66519 8.16391 4 12 4C15.8361 4 19.2417 6.66519 21.4357 8.91892Z" stroke="#535353" stroke-width="1.5" stroke-miterlimit="10" stroke-linejoin="round"/>
<path d="M12.375 15.5C14.308 15.5 15.875 13.933 15.875 12C15.875 10.067 14.308 8.5 12.375 8.5C10.442 8.5 8.875 10.067 8.875 12C8.875 13.933 10.442 15.5 12.375 15.5Z" stroke="#535353" stroke-width="1.5" stroke-miterlimit="10" stroke-linejoin="round"/>
</svg>
